# xmcd
#
# Track frame offsets: 
#        150
#        17490
#        29960
#        42784
#        56619
#        64861
#        80716
#        94675
#        105638
#        120731
#        135699
#        144928
#
# Disc length: 2063 seconds
#
# Revision: 2
# Processed by: cddbd v1.5.2PL0 Copyright (c) Steve Scherf et al.
# Submitted via: ExactAudioCopy v0.99pb5
#
DISCID=a4080d0c
DTITLE=Doyle Lawson and QuickSilver - I Heard the Angels Singing
DYEAR=1989
DGENRE=
TTITLE0=The Holy City
TTITLE1=Stormy Waters
TTITLE2=The Little Mountain Church House
TTITLE3=In the Shelter of His Arms
TTITLE4=I Heard the Angels Singing
TTITLE5=He's My Guide
TTITLE6=The Little White Church
TTITLE7=The City Where Comes No Strife
TTITLE8=Rock of Ages, Hide Thou Me
TTITLE9=I Won't Have To Cross Jordan Alone
TTITLE10=That New Jerusalem
TTITLE11=That Home Far Away
EXTD=
EXTT0=
EXTT1=
EXTT2=
EXTT3=
EXTT4=
EXTT5=
EXTT6=
EXTT7=
EXTT8=
EXTT9=
EXTT10=
EXTT11=
PLAYORDER=
